<svg xmlns="http://www.w3.org/2000/svg" viewBox="0 0 12.013 12.003">
  <defs>
    <style>
      .cls-1 {
        fill-rule: evenodd;
      }
    </style>
  </defs>
  <path id="Path_5268" data-name="Path 5268" class="cls-1" d="M799.386,34.83h-8.829a1.427,1.427,0,0,0-1.6,1.605v8.82a1.415,1.415,0,0,0,1.541,1.578h8.885a1.431,1.431,0,0,0,1.587-1.587v-8.83A1.427,1.427,0,0,0,799.386,34.83Zm-.978,1.356c1.19,0,1.19,0,1.19,1.19,0,1.162,0,1.162-1.172,1.162s-1.181,0-1.181-1.181S797.254,36.186,798.408,36.186ZM794.975,38.5a2.321,2.321,0,1,1-2.343,2.3A2.374,2.374,0,0,1,794.975,38.5Zm4.622,6.246c-.009.563-.157.72-.71.72h-7.852c-.544,0-.7-.157-.7-.72,0-1.449.009-2.915-.018-4.373,0-.406.111-.507.5-.489.544.037.563.018.5.554a3.7,3.7,0,0,0,2.9,4.013,3.751,3.751,0,0,0,4.29-2.574,3.65,3.65,0,0,0,.083-1.725c-.037-.212.009-.249.194-.249.83-.065.83-.074.83.775C799.6,42.026,799.6,43.392,799.6,44.748Z" transform="translate(-788.96 -34.83)"/>
</svg>
