<svg xmlns="http://www.w3.org/2000/svg" viewBox="0 0 15 13.332">
  <defs>
    <style>
      .cls-1 {
        fill: #ab944e;
      }
    </style>
  </defs>
  <path id="Path_2" data-name="Path 2" class="cls-1" d="M15,7.49H13.935A6.346,6.346,0,0,0,7.6,1.156V.08A7.415,7.415,0,0,1,15,7.49ZM7.6,1.93V3A4.488,4.488,0,0,1,12.085,7.48h1.066A5.561,5.561,0,0,0,7.6,1.93Zm3.046,11.482a3,3,0,0,0,1.026-.985,1.51,1.51,0,0,0,.151-.231,9.663,9.663,0,0,0,.352-1.619c.161-.684-3-2.021-3.268-1.166a8.154,8.154,0,0,1-.452,1.579c-.181.231-.613.121-.885-.111-.724-.613-1.518-1.508-2.222-2.222l-.05-.05-.06-.06c-.7-.7-1.609-1.5-2.222-2.222-.231-.271-.342-.7-.1-.885a8.154,8.154,0,0,1,1.579-.452c.855-.271-.483-3.428-1.166-3.268a10.8,10.8,0,0,0-1.619.362,1.828,1.828,0,0,0-.231.151C-.322,3.378-.553,6.143,1.207,8.2c.664.784,1.367,1.548,2.081,2.292h0l.06.06.06.06h.01a19.729,19.729,0,0,0,3.067,2.735" transform="translate(-0.001 -0.08)"/>
</svg>
