<svg xmlns="http://www.w3.org/2000/svg" viewBox="0 0 21.39 17.7">
  <defs>
    <style>
      .cls-1 {
        fill: #fff;
        fill-rule: evenodd;
      }
    </style>
  </defs>
  <g id="Group_144" data-name="Group 144" transform="translate(-977.95 -3357.88)">
    <path id="Path_5242" data-name="Path 5242" class="cls-1" d="M993.53,3371.67a5.779,5.779,0,0,0-.62.06,10.963,10.963,0,0,0,.75-1.28l2.06,1.38v-2.16a6.114,6.114,0,0,0,2.44-4.82c0-3.19-2.91-5.75-6.66-5.75a5.809,5.809,0,0,0-1.91.34,7.405,7.405,0,0,0-1.63-.59,7.182,7.182,0,0,1,3.53-.97c4.35,0,7.85,3.1,7.85,6.88a6.962,6.962,0,0,1-2.41,5.44v3.44Z"/>
    <path id="Path_5243" data-name="Path 5243" class="cls-1" d="M980.36,3375.58v-3.44a6.856,6.856,0,0,1-2.41-5.44c0-3.78,3.5-6.88,7.85-6.88,3.63,0,7.29,3.1,7.29,6.88a7.01,7.01,0,0,1-7.29,7.04,13.9,13.9,0,0,1-2.03-.16Zm-1.22-8.79a6.114,6.114,0,0,0,2.44,4.82v2.13l2.06-1.38a12.839,12.839,0,0,0,2.16.19,5.728,5.728,0,0,0,6.07-5.75c0-3.19-3.03-5.75-6.07-5.75-3.78-.01-6.66,2.55-6.66,5.74Z"/>
  </g>
</svg>
