<svg xmlns="http://www.w3.org/2000/svg" viewBox="0 0 12.235 12.516">
  <defs>
    <style>
      .cls-1 {
        fill: #fff;
      }
    </style>
  </defs>
  <g id="Group_59" data-name="Group 59" transform="translate(-982.925 -3327.479)">
    <path id="Path_5244" data-name="Path 5244" class="cls-1" d="M983.21,3333.06a.983.983,0,0,0,1.39,1.39l4.21-4.21,4.67,4.67a.99.99,0,0,0,1.39,0,.966.966,0,0,0,0-1.38l-6.05-6.05Z"/>
    <path id="Path_5245" data-name="Path 5245" class="cls-1" d="M983.21,3337.86a.983.983,0,0,0,1.39,1.39l4.21-4.21,4.67,4.67a.99.99,0,0,0,1.39,0,.966.966,0,0,0,0-1.38l-6.05-6.05Z"/>
  </g>
</svg>
