<svg xmlns="http://www.w3.org/2000/svg" viewBox="0 0 14.696 13.815">
  <path id="Path_5267" data-name="Path 5267" d="M674.455,42.4h-1.147a6.8,6.8,0,0,0-6.784-6.784V34.47a7.93,7.93,0,0,1,7.931,7.931Zm-7.941-5.953v1.147A4.811,4.811,0,0,1,671.32,42.4h1.147a5.959,5.959,0,0,0-5.953-5.953Zm4.658,11.837a3.364,3.364,0,0,0,1.1-1.048c.049-.089.129-.158.168-.247a10.176,10.176,0,0,0,.376-1.731c.168-.732-3.2-2.166-3.5-1.246a8.749,8.749,0,0,1-.485,1.691c-.188.247-.653.138-.949-.119-.771-.653-1.632-1.622-2.383-2.383l-.059-.059-.059-.059c-.761-.752-1.721-1.612-2.383-2.383-.247-.3-.366-.761-.119-.949a8.748,8.748,0,0,1,1.691-.485c.92-.3-.514-3.669-1.246-3.5a12.524,12.524,0,0,0-1.731.376,1.368,1.368,0,0,0-.247.168c-1.928,1.216-2.176,4.193-.3,6.4.712.841,1.464,1.661,2.235,2.462h0a.436.436,0,0,0,.069.059.43.43,0,0,1,.059.069h.01a21.114,21.114,0,0,0,3.283,2.927" transform="translate(-659.759 -34.47)"/>
</svg>
