<svg xmlns="http://www.w3.org/2000/svg" viewBox="0 0 11.95 11.94">
  <defs>
    <style>
      .cls-1 {
        fill: #ab944e;
        fill-rule: evenodd;
      }
    </style>
  </defs>
  <path id="Path_3" data-name="Path 3" class="cls-1" d="M10.37,0H1.59A1.421,1.421,0,0,0,0,1.6v8.77a1.407,1.407,0,0,0,1.53,1.57h8.84a1.424,1.424,0,0,0,1.58-1.58V1.57A1.417,1.417,0,0,0,10.37,0ZM9.4,1.35c1.18,0,1.18,0,1.18,1.18,0,1.16,0,1.16-1.16,1.16s-1.17,0-1.17-1.17S8.25,1.35,9.4,1.35ZM5.98,3.65A2.31,2.31,0,1,1,3.66,5.94,2.362,2.362,0,0,1,5.98,3.65Zm4.61,6.21c-.01.56-.15.72-.71.72H2.07c-.55,0-.7-.16-.7-.72,0-1.44.01-2.9-.02-4.35,0-.41.11-.5.49-.49.55.04.56.02.5.55A3.671,3.671,0,0,0,5.22,9.56,3.664,3.664,0,0,0,9.57,5.28c-.04-.21.01-.25.2-.25.82-.06.82-.08.82.77C10.59,7.15,10.59,8.51,10.59,9.86Z"/>
</svg>
