<svg xmlns="http://www.w3.org/2000/svg" width="129.198" height="110.931" viewBox="0 0 129.198 110.931">
  <g id="olcu-2" transform="translate(-247.884 -185.298)">
    <rect id="Rectangle_1" data-name="Rectangle 1" width="128.448" height="91.748" transform="translate(248.259 194.747)" fill="none" stroke="#6d6f72" stroke-miterlimit="10" stroke-width="0.75"/>
    <path id="Path_3" data-name="Path 3" d="M276.518,193.747s-.918-3.853,2.2-4.22h.917v-3.854h3.3v4.037s5.138-1.468,5.322,4.037Z" fill="#6d6f72" stroke="#6d6f72" stroke-miterlimit="10" stroke-width="0.75"/>
    <path id="Path_4" data-name="Path 4" d="M347.9,192.83s-.183-4.037,2.569-4.037h1.1v-3.12h3.67v2.753h2.385s1.1-.367,1.285,1.284v4.037H347.9Z" fill="#6d6f72" stroke="#6d6f72" stroke-miterlimit="10" stroke-width="0.75"/>
    <rect id="Rectangle_2" data-name="Rectangle 2" width="2.873" height="91.748" transform="translate(279.454 194.747)" fill="#6d6f72" stroke="#6d6f72" stroke-miterlimit="10" stroke-width="0.75"/>
    <rect id="Rectangle_3" data-name="Rectangle 3" width="2.873" height="91.748" transform="translate(351.264 194.747)" fill="#6d6f72" stroke="#6d6f72" stroke-miterlimit="10" stroke-width="0.75"/>
    <path id="Path_5" data-name="Path 5" d="M266.242,286.679v2.385h9.725v5.321h8.624v-5.321h60.737l1.835,5.321h3.119v1.468h3.853V294.2h1.835v-4.587h9.542V286.5H291.2l-24.956.184" fill="#6d6f72" stroke="#6d6f72" stroke-miterlimit="10" stroke-width="0.75"/>
    <line id="Line_2" data-name="Line 2" y1="5.321" x2="6.789" transform="translate(284.592 289.064)" fill="#6d6f72" stroke="#6d6f72" stroke-miterlimit="10" stroke-width="0.75"/>
  </g>
</svg>
